<svg xmlns="http://www.w3.org/2000/svg" viewBox="0 0 400 400" width="100%" height="100%">
  <defs>
    <linearGradient id="bg_biren" x1="0%" y1="0%" x2="100%" y2="100%">
      <stop offset="0%" stop-color="#FDF6E2"/>
      <stop offset="100%" stop-color="#EED9B3"/>
    </linearGradient>
  </defs>
  <rect width="400" height="400" rx="40" fill="url(#bg_biren)"/>
  <circle cx="200" cy="150" r="80" fill="#E8C3A0"/>
  <!-- Grey / Dignified Hair -->
  <path d="M 120 150 C 120 70 280 70 280 150 C 280 170 270 180 270 190 C 260 140 240 120 200 120 C 160 120 140 140 130 190 Z" fill="#9E9E9E"/>
  <!-- Gentle Kind Eyes & Teacher Glasses -->
  <rect x="145" y="135" width="40" height="30" rx="6" fill="none" stroke="#6D4C41" stroke-width="3"/>
  <rect x="215" y="135" width="40" height="30" rx="6" fill="none" stroke="#6D4C41" stroke-width="3"/>
  <line x1="185" y1="150" x2="215" y2="150" stroke="#6D4C41" stroke-width="3"/>
  <circle cx="165" cy="150" r="4" fill="#3E2723"/>
  <circle cx="235" cy="150" r="4" fill="#3E2723"/>
  <!-- Dignified Moustache & Smile -->
  <path d="M 170 185 Q 200 175 230 185 Q 200 198 170 185 Z" fill="#BDBDBD"/>
  <path d="M 178 198 Q 200 210 222 198" stroke="#8D6E63" stroke-width="3" fill="none"/>
  <!-- Kurta & Woven Assam Gamusa -->
  <path d="M 110 400 C 110 290 140 245 200 245 C 260 245 290 290 290 400 Z" fill="#F5F5DC"/>
  <!-- Gamusa draped on shoulder -->
  <path d="M 140 250 C 140 330 150 400 150 400 L 180 400 L 170 250 Z" fill="#FFFFFF" stroke="#D32F2F" stroke-width="2"/>
  <line x1="140" y1="360" x2="180" y2="360" stroke="#D32F2F" stroke-width="4"/>
  <line x1="140" y1="375" x2="180" y2="375" stroke="#D32F2F" stroke-width="6"/>
  <text x="200" y="380" font-family="'Segoe UI', Roboto, sans-serif" font-size="16" font-weight="bold" fill="#5D4037" text-anchor="middle">Biren (Husband - Cherished Memory)</text>
</svg>