<svg xmlns="http://www.w3.org/2000/svg" viewBox="0 0 200 200" width="100%" height="100%">
  <rect width="200" height="200" fill="#FDF2F8" rx="20"/>
  <!-- Gentle curved green stem -->
  <path d="M 60 20 Q 90 90 140 180" stroke="#15803D" stroke-width="6" fill="none" stroke-linecap="round"/>
  <!-- Drooping pink orchid blossoms -->
  <g fill="#F472B6" stroke="#DB2777" stroke-width="1.5">
    <ellipse cx="65" cy="35" rx="14" ry="10" transform="rotate(-15 65 35)"/>
    <circle cx="65" cy="35" r="4" fill="#FDF2F8"/>
    <ellipse cx="80" cy="60" rx="16" ry="11" transform="rotate(-10 80 60)"/>
    <circle cx="80" cy="60" r="4" fill="#FDF2F8"/>
    <ellipse cx="95" cy="88" rx="18" ry="12"/>
    <circle cx="95" cy="88" r="5" fill="#FDF2F8"/>
    <ellipse cx="110" cy="118" rx="19" ry="13" transform="rotate(10 110 118)"/>
    <circle cx="110" cy="118" r="5" fill="#FDF2F8"/>
    <ellipse cx="125" cy="148" rx="17" ry="12" transform="rotate(15 125 148)"/>
    <circle cx="125" cy="148" r="4" fill="#FDF2F8"/>
    <ellipse cx="138" cy="175" rx="14" ry="10" transform="rotate(20 138 175)"/>
    <circle cx="138" cy="175" r="3" fill="#FDF2F8"/>
  </g>
</svg>